<svg width="580" height="400" xmlns="http://www.w3.org/2000/svg">
 <!-- Created with Method Draw - http://github.com/duopixel/Method-Draw/ -->
 <g>
  <title>background</title>
  <rect fill="#fff" id="canvas_background" height="402" width="582" y="-1" x="-1"/>
  <g display="none" overflow="visible" y="0" x="0" height="100%" width="100%" id="canvasGrid">
   <rect fill="url(#gridpattern)" stroke-width="0" y="0" x="0" height="100%" width="100%"/>
  </g>
 </g>
 <g>
  <title>Layer 1</title>
  <path d="m39.5,128.453125c1,4 1.610649,6.159271 3,9c1.584103,3.238922 4,7 5,8c1,1 1.188759,1.415283 2,2c2.565372,1.849014 2.331982,6.229355 4,10c1.458637,3.297333 4.770248,8.026749 5,9c0.513744,2.176254 2.458805,2.693436 3,4c0.382683,0.923874 0.692547,2.186005 2,4c0.826904,1.147263 1.617317,3.076126 2,4c0.541199,1.306564 2.173096,1.852737 3,3c1.307449,1.813995 2.418861,4.418854 4,6c1.581139,1.581146 2.824432,1.097885 4,3c0.525734,0.850647 1.173096,0.852737 2,2c1.307449,1.813995 2.418861,1.418854 4,3c1.581139,1.581146 2.823746,3.486252 5,4c0.973251,0.229752 4,2 6,4c1,1 3.310005,1.337494 6,3c2.406006,1.487 4.934143,4.144287 7,5c2.921562,1.210144 6.078438,2.789856 9,4c4.131714,1.711411 7.809006,3.321442 11,5c4.765991,2.50705 10.087433,2.79393 15,5c2.039825,0.916016 5.878555,2.493454 9,3c2.961258,0.480545 7,1 11,2c4,1 8,1 12,2c4,1 12.647491,1.972519 17,3c3.89299,0.919006 8.925797,0.497559 14,1c2.985397,0.295609 8,1 11,1c4,0 7.823746,0.513748 10,0c5.839493,-1.378525 8,0 11,0c2,0 5,0 8,0c4,0 6,0 11,0c4,0 11,0 20,0c7,0 14,0 20,0c7,0 13,0 19,0c5,0 9,0 14,0c2,0 5,0 8,0c1,0 4,0 7,0c2,0 4.549164,-0.95517 8,-2c2.871277,-0.869354 6.805664,-0.44841 11,-2c3.867004,-1.430496 11.025818,-2.679642 13,-3c3.121429,-0.506546 4.076111,-1.61731 5,-2c1.306549,-0.541199 5.06134,-1.824615 11,-4c10.11319,-3.704544 16,-6 20,-8c2,-1 5.372009,-1.385101 9,-4c2.294525,-1.653809 3,-3 5,-4c2,-1 3.186005,-1.692551 5,-3c3.441803,-2.480713 4,-3 5,-4c1,-1 3,-3 5,-5c2,-2 4.323669,-4.520157 6,-6c2.703003,-2.386169 4.190277,-4.881516 6,-8c2.24469,-3.867996 4,-6 5,-8c1,-2 2.95517,-2.549149 4,-6c0.289795,-0.957092 1,-2 1,-3c0,-1 -0.765381,-2.152237 0,-4c0.541199,-1.306564 1.486267,-3.823746 2,-6c0.68927,-2.919754 -1.414215,-5.585785 0,-7c0.707092,-0.707108 1,-1 1,-2c0,-7 1,-9 1,-11c0,-2 0.458801,-4.693436 1,-6c0.38269,-0.923874 0.839813,-2.012909 1,-3c0.506531,-3.121445 2,-7 3,-8l1,-2l1,-1" id="svg_1" stroke-width="1.5" stroke="#000" fill="none"/>
 </g>
</svg>